# xmcd CD database file
#
# Track frame offsets:
#	150
#	23588
#	44108
#	57268
#	74723
#	100931
#	123026
#	140759
#	166389
#	185152
#	200198
#	219094
#	250272
#	271545
#
# Disc length: 3842 seconds
#
# Revision: 0
# Processed by: cddbd v1.4PL0 Copyright (c) Steve Scherf et al.
# Submitted via: CDex 1.50
#
DISCID=d50f000e
DTITLE=James Solberg - Jimmy Soul
DYEAR=2004
DGENRE=Blues
TTITLE0=Real Time
TTITLE1=Ever Seen a Rainbow
TTITLE2=Bubba's Boogie
TTITLE3=Nobody to Blame
TTITLE4=It's Alright
TTITLE5=Ain't No Way
TTITLE6=Can It Be
TTITLE7=Say Goodbye
TTITLE8=Build You a Castle
TTITLE9=Call That a Buddy
TTITLE10=Buzz Me
TTITLE11=Bad Love
TTITLE12=The Hand You're Dealt
TTITLE13=Wally World USA
EXTD=YEAR: 2004
EXTT0=
EXTT1=
EXTT2=
EXTT3=
EXTT4=
EXTT5=
EXTT6=
EXTT7=
EXTT8=
EXTT9=
EXTT10=
EXTT11=
EXTT12=
EXTT13=
PLAYORDER=
